<svg width="19" height="20" viewBox="0 0 19 20" fill="none" xmlns="http://www.w3.org/2000/svg">
<g clip-path="url(#clip0_171_722)">
<path d="M9.50016 17.9165C13.8724 17.9165 17.4168 14.3721 17.4168 9.99986C17.4168 5.6276 13.8724 2.08319 9.50016 2.08319C5.12791 2.08319 1.5835 5.6276 1.5835 9.99986C1.5835 14.3721 5.12791 17.9165 9.50016 17.9165Z" fill="#FFCCCC"/>
<path d="M11.8752 7.62486L7.12516 12.3749M7.12516 7.62486L11.8752 12.3749M17.4168 9.99986C17.4168 14.3721 13.8724 17.9165 9.50016 17.9165C5.12791 17.9165 1.5835 14.3721 1.5835 9.99986C1.5835 5.6276 5.12791 2.08319 9.50016 2.08319C13.8724 2.08319 17.4168 5.6276 17.4168 9.99986Z" stroke="black" stroke-width="1.5" stroke-linecap="round" stroke-linejoin="round"/>
</g>
<defs>
<clipPath id="clip0_171_722">
<rect width="19" height="19" fill="white" transform="translate(0 0.5)"/>
</clipPath>
</defs>
</svg>
